<?xml version="1.0" encoding="utf-8"?>
<!-- Generator: Adobe Illustrator 21.1.0, SVG Export Plug-In . SVG Version: 6.00 Build 0)  -->
<svg version="1.1" id="Ebene_1" xmlns="http://www.w3.org/2000/svg" xmlns:xlink="http://www.w3.org/1999/xlink" x="0px" y="0px"
	 viewBox="0 0 401 401" style="enable-background:new 0 0 401 401;" xml:space="preserve">
<style type="text/css">
	.st0{fill:#29ABE2;}
	.st1{fill:#FFFFFF;}
	.st2{fill:url(#SVGID_1_);}
	.st3{fill:url(#SVGID_2_);}
	.st4{fill:url(#SVGID_3_);}
	.st5{fill:url(#SVGID_4_);}
	.st6{fill:url(#SVGID_5_);}
	.st7{fill:#143263;}
	.st8{fill:url(#SVGID_8_);}
	.st9{fill:url(#SVGID_9_);}
	.st10{fill:url(#SVGID_10_);}
	.st11{fill:#195083;}
	.st12{fill:#1F6EA3;}
	.st13{fill:#248DC2;}
	.st14{fill:url(#SVGID_11_);}
	.st15{fill:url(#SVGID_12_);}
	.st16{fill:url(#SVGID_13_);}
	.st17{fill:url(#SVGID_14_);}
	.st18{fill:url(#SVGID_15_);}
	.st19{fill:url(#SVGID_18_);}
	.st20{fill:url(#SVGID_19_);}
	.st21{fill:url(#SVGID_20_);}
	.st22{fill:url(#SVGID_23_);}
	.st23{fill:url(#SVGID_24_);}
	.st24{fill:url(#SVGID_25_);}
	.st25{fill:url(#SVGID_26_);}
	.st26{fill:url(#SVGID_27_);}
	.st27{fill:url(#SVGID_28_);}
</style>
<g>
	<linearGradient id="SVGID_1_" gradientUnits="userSpaceOnUse" x1="46.002" y1="2024.1548" x2="227.3921" y2="-111.3017">
		<stop  offset="0" style="stop-color:#FFFFFF"/>
		<stop  offset="0.5718" style="stop-color:#29ABE2"/>
		<stop  offset="1" style="stop-color:#0071BC"/>
	</linearGradient>
	<path class="st2" d="M401.4,200.5C401.4,89.9,311.4,0,200.9,0C90.3,0,0.4,89.9,0.4,200.5c0,6.1,0.3,12.3,0.8,18.4H1.1l0.6,5.4
		c0,0,0,0,0,0l0.5,4.3h0C16.1,327.2,100.7,401,200.9,401s184.7-73.8,198.5-172.4h0l0.5-4.3c0,0,0,0,0,0l0.6-5.4h-0.1
		C401.1,212.8,401.4,206.6,401.4,200.5z M40.2,157.9c6.4-8.4,15.2-14.4,26.5-17.9c0.7-0.2,1.3-0.5,1.9-0.9c1-0.5,1.9-1.1,3.3-2
		c0.7-16.1,8-29.2,23.1-39c15-9.7,32.1-11.7,50.5-9c2.6-1.4,3.3-3.8,4.2-5.9c5.4-12.2,15.5-20.9,29.4-26.5c4.8-1.9,9.9-3.9,15.6-3.5
		c7.6-1.8,15.2-0.7,22.6,0.4c8,1.2,15.2,4.2,21.7,8.3c8.9,5.6,15.2,12.7,19,21.4c0.3,0.7,0.6,1.5,1.1,2.2c0.6,0.8,1.4,1.6,2.4,2.6
		c4.1,0,8.4,0.2,12.6,0c12.7-0.6,23.8,3,33.9,8.8c8.5,4.9,14.6,11.6,19.1,19.4c3.4,5.8,4.3,12.1,5.4,18.3c0.6,3,1.5,4.8,5.2,6.2
		c10.2,3.8,18,10.3,24.1,17.9c3.9,5,6.7,10.6,7.8,16.8c1.1,6.3,1.6,12.3,0,18.7c-2.2,8.9-6.4,16.7-13.7,23.4c0,0-0.1,0.1-0.1,0.1
		l-72.7-104.1l-31.5,31.5l-50.6-54.5l-54.7,62.5l-33.5-27.6L51,218.9h-4.2c-3.5-3-6.7-6.4-9.2-10.2c-2.4-3.6-3.8-7.5-5.4-11.4
		c-1.6-4.1-2.1-8-2.2-12.2C29.9,175.1,33.9,166.2,40.2,157.9z M200.9,391.3c-94.8,0-175-69.6-188.8-162.7h44.1l1.6-2.4l56.9-86.3
		l32.4,26.7l53.8-61.5l50.1,54l30.5-30.5l66.3,95l3.5,5h38.2C375.9,321.7,295.7,391.3,200.9,391.3z"/>
	<linearGradient id="SVGID_2_" gradientUnits="userSpaceOnUse" x1="-9.421" y1="2019.447" x2="171.9691" y2="-116.0095">
		<stop  offset="0" style="stop-color:#FFFFFF"/>
		<stop  offset="0.5718" style="stop-color:#29ABE2"/>
		<stop  offset="1" style="stop-color:#0071BC"/>
	</linearGradient>
	<polygon class="st3" points="149.7,186.9 120.2,186.9 102.7,233.6 69.9,321.1 95.7,321.1 125.5,233.6 134.7,206.4 143.6,233.6 
		154.5,266.8 136,267.3 140.7,286.5 160.1,286.5 173.1,321.1 199.8,321.1 167.1,233.6 	"/>
	<linearGradient id="SVGID_3_" gradientUnits="userSpaceOnUse" x1="46.5224" y1="2024.199" x2="227.9125" y2="-111.2575">
		<stop  offset="0" style="stop-color:#FFFFFF"/>
		<stop  offset="0.5718" style="stop-color:#29ABE2"/>
		<stop  offset="1" style="stop-color:#0071BC"/>
	</linearGradient>
	<path class="st4" d="M200.2,228.8c8.9,0,15.4-5.9,15.4-14.1c0-8.5-6.5-14.3-15.4-14.3c-8.9,0-15.4,5.9-15.4,14.3
		C184.8,223,191.3,228.8,200.2,228.8z"/>
	<linearGradient id="SVGID_4_" gradientUnits="userSpaceOnUse" x1="73.0301" y1="2026.4507" x2="254.4202" y2="-109.0059">
		<stop  offset="0" style="stop-color:#FFFFFF"/>
		<stop  offset="0.5718" style="stop-color:#29ABE2"/>
		<stop  offset="1" style="stop-color:#0071BC"/>
	</linearGradient>
	<polygon class="st5" points="193.5,237.8 224.4,321.1 249.4,321.1 218.4,237.8 	"/>
	<linearGradient id="SVGID_5_" gradientUnits="userSpaceOnUse" x1="115.2596" y1="2030.0377" x2="296.6497" y2="-105.4188">
		<stop  offset="0" style="stop-color:#FFFFFF"/>
		<stop  offset="0.5718" style="stop-color:#29ABE2"/>
		<stop  offset="1" style="stop-color:#0071BC"/>
	</linearGradient>
	<path class="st6" d="M257.4,186.9h-32.4l7.5,19.6l22.4,0.6c19.5,0,29.9,5.6,29.9,21.9c0,1.7-0.1,3.2-0.4,4.6
		c-1.8,11.4-10.8,14.9-26.3,15.7c-2.5,0.1-5,0.5-7.4,1.1l28.5,70.6h28.2l-26.1-55.4c15.6-5.3,26.4-13.5,28.1-31.3
		c0.2-1.7,0.3-3.5,0.3-5.4C309.7,197.3,286.9,186.9,257.4,186.9z"/>
</g>
</svg>
